<?xml version="1.0" encoding="UTF-8" standalone="no"?>
<!DOCTYPE svg PUBLIC "-//W3C//DTD SVG 1.1//EN"
 "http://www.w3.org/Graphics/SVG/1.1/DTD/svg11.dtd">
<!-- Generated by graphviz version 2.43.0 (0)
 -->
<!-- Title: disAnalog Pages: 1 -->
<svg width="189pt" height="64pt"
 viewBox="0.00 0.00 189.00 64.00" xmlns="http://www.w3.org/2000/svg" xmlns:xlink="http://www.w3.org/1999/xlink">
<g id="graph0" class="graph" transform="scale(1 1) rotate(0) translate(4 60)">
<title>disAnalog</title>
<!-- Node1 -->
<g id="node1" class="node">
<title>Node1</title>
<g id="a_node1"><a xlink:title="アナログ機能を無効化する関数">
<polygon fill="#999999" stroke="#666666" points="181,-37 116,-37 116,-18 181,-18 181,-37"/>
<text text-anchor="middle" x="148.5" y="-25" font-family="Helvetica,sans-Serif" font-size="10.00">disAnalog</text>
</a>
</g>
</g>
<!-- Node2 -->
<g id="node2" class="node">
<title>Node2</title>
<g id="a_node2"><a xlink:href="PIC12F1822_8c.html#ae333b3351e63da959ca986e52324d850" target="_top" xlink:title=" ">
<polygon fill="white" stroke="#666666" points="80,-56 0,-56 0,-37 80,-37 80,-56"/>
<text text-anchor="middle" x="40" y="-44" font-family="Helvetica,sans-Serif" font-size="10.00">init_interrupt</text>
</a>
</g>
</g>
<!-- Node1&#45;&gt;Node2 -->
<g id="edge1" class="edge">
<title>Node1&#45;&gt;Node2</title>
<path fill="none" stroke="#63b8ff" d="M105.84,-34.93C97.42,-36.43 88.61,-38.01 80.28,-39.49"/>
<polygon fill="#63b8ff" stroke="#63b8ff" points="106.61,-38.35 115.83,-33.15 105.38,-31.46 106.61,-38.35"/>
</g>
<!-- Node3 -->
<g id="node3" class="node">
<title>Node3</title>
<g id="a_node3"><a xlink:href="PIC12F1822_8c.html#ae2e5e1fba2eac02c6221fd1ac93eaec8" target="_top" xlink:title="諸々の初期化を行う関数（スキャン式）">
<polygon fill="white" stroke="#666666" points="70,-19 10,-19 10,0 70,0 70,-19"/>
<text text-anchor="middle" x="40" y="-7" font-family="Helvetica,sans-Serif" font-size="10.00">init_scan</text>
</a>
</g>
</g>
<!-- Node1&#45;&gt;Node3 -->
<g id="edge2" class="edge">
<title>Node1&#45;&gt;Node3</title>
<path fill="none" stroke="#63b8ff" d="M105.67,-20.43C93.8,-18.42 81.13,-16.28 70.18,-14.43"/>
<polygon fill="#63b8ff" stroke="#63b8ff" points="105.39,-23.93 115.83,-22.15 106.56,-17.03 105.39,-23.93"/>
</g>
</g>
</svg>
