<?xml version="1.0" encoding="UTF-8" standalone="no"?>
<!DOCTYPE svg PUBLIC "-//W3C//DTD SVG 1.1//EN"
 "http://www.w3.org/Graphics/SVG/1.1/DTD/svg11.dtd">
<!-- Generated by graphviz version 2.43.0 (0)
 -->
<!-- Title: setInitState Pages: 1 -->
<svg width="197pt" height="64pt"
 viewBox="0.00 0.00 197.00 64.00" xmlns="http://www.w3.org/2000/svg" xmlns:xlink="http://www.w3.org/1999/xlink">
<g id="graph0" class="graph" transform="scale(1 1) rotate(0) translate(4 60)">
<title>setInitState</title>
<!-- Node1 -->
<g id="node1" class="node">
<title>Node1</title>
<g id="a_node1"><a xlink:title="EEPROMの値を読み書きして初期状態を設定する関数">
<polygon fill="#999999" stroke="#666666" points="189,-37 116,-37 116,-18 189,-18 189,-37"/>
<text text-anchor="middle" x="152.5" y="-25" font-family="Helvetica,sans-Serif" font-size="10.00">setInitState</text>
</a>
</g>
</g>
<!-- Node2 -->
<g id="node2" class="node">
<title>Node2</title>
<g id="a_node2"><a xlink:href="PIC12F1822_8c.html#ae333b3351e63da959ca986e52324d850" target="_top" xlink:title=" ">
<polygon fill="white" stroke="#666666" points="80,-56 0,-56 0,-37 80,-37 80,-56"/>
<text text-anchor="middle" x="40" y="-44" font-family="Helvetica,sans-Serif" font-size="10.00">init_interrupt</text>
</a>
</g>
</g>
<!-- Node1&#45;&gt;Node2 -->
<g id="edge1" class="edge">
<title>Node1&#45;&gt;Node2</title>
<path fill="none" stroke="#63b8ff" d="M105.82,-35.36C97.36,-36.81 88.58,-38.32 80.33,-39.74"/>
<polygon fill="#63b8ff" stroke="#63b8ff" points="106.67,-38.76 115.93,-33.62 105.48,-31.86 106.67,-38.76"/>
</g>
<!-- Node3 -->
<g id="node3" class="node">
<title>Node3</title>
<g id="a_node3"><a xlink:href="PIC12F1822_8c.html#ae2e5e1fba2eac02c6221fd1ac93eaec8" target="_top" xlink:title="諸々の初期化を行う関数（スキャン式）">
<polygon fill="white" stroke="#666666" points="70,-19 10,-19 10,0 70,0 70,-19"/>
<text text-anchor="middle" x="40" y="-7" font-family="Helvetica,sans-Serif" font-size="10.00">init_scan</text>
</a>
</g>
</g>
<!-- Node1&#45;&gt;Node3 -->
<g id="edge2" class="edge">
<title>Node1&#45;&gt;Node3</title>
<path fill="none" stroke="#63b8ff" d="M105.98,-20.09C93.9,-18.12 81.18,-16.04 70.22,-14.26"/>
<polygon fill="#63b8ff" stroke="#63b8ff" points="105.5,-23.55 115.93,-21.71 106.62,-16.64 105.5,-23.55"/>
</g>
</g>
</svg>
