<?xml version="1.0" encoding="UTF-8" standalone="no"?>
<!DOCTYPE svg PUBLIC "-//W3C//DTD SVG 1.1//EN"
 "http://www.w3.org/Graphics/SVG/1.1/DTD/svg11.dtd">
<!-- Generated by graphviz version 2.43.0 (0)
 -->
<!-- Title: waitChattering Pages: 1 -->
<svg width="328pt" height="138pt"
 viewBox="0.00 0.00 328.00 138.00" xmlns="http://www.w3.org/2000/svg" xmlns:xlink="http://www.w3.org/1999/xlink">
<g id="graph0" class="graph" transform="scale(1 1) rotate(0) translate(4 134)">
<title>waitChattering</title>
<!-- Node1 -->
<g id="node1" class="node">
<title>Node1</title>
<g id="a_node1"><a xlink:title="チャタリングを待つ関数">
<polygon fill="#999999" stroke="#666666" points="320,-93 231,-93 231,-74 320,-74 320,-93"/>
<text text-anchor="middle" x="275.5" y="-81" font-family="Helvetica,sans-Serif" font-size="10.00">waitChattering</text>
</a>
</g>
</g>
<!-- Node2 -->
<g id="node2" class="node">
<title>Node2</title>
<g id="a_node2"><a xlink:href="common_8c.html#aa27c07912581fb3e8bb9c8b59e8e8eaa" target="_top" xlink:title="バイパスの挙動を定義する関数（スキャン式）">
<polygon fill="white" stroke="#666666" points="195,-130 116,-130 116,-111 195,-111 195,-130"/>
<text text-anchor="middle" x="155.5" y="-118" font-family="Helvetica,sans-Serif" font-size="10.00">bypass_scan</text>
</a>
</g>
</g>
<!-- Node1&#45;&gt;Node2 -->
<g id="edge1" class="edge">
<title>Node1&#45;&gt;Node2</title>
<path fill="none" stroke="#63b8ff" d="M234.31,-96.1C218.9,-100.93 201.58,-106.37 187.2,-110.88"/>
<polygon fill="#63b8ff" stroke="#63b8ff" points="235.62,-99.36 244.11,-93.03 233.52,-92.68 235.62,-99.36"/>
</g>
<!-- Node3 -->
<g id="node3" class="node">
<title>Node3</title>
<g id="a_node3"><a xlink:href="common_8c.html#a450f740567f3511eb4075639ee9126db" target="_top" xlink:title="割り込み中に実行される関数">
<polygon fill="white" stroke="#666666" points="186.5,-93 124.5,-93 124.5,-74 186.5,-74 186.5,-93"/>
<text text-anchor="middle" x="155.5" y="-81" font-family="Helvetica,sans-Serif" font-size="10.00">insideISR</text>
</a>
</g>
</g>
<!-- Node1&#45;&gt;Node3 -->
<g id="edge2" class="edge">
<title>Node1&#45;&gt;Node3</title>
<path fill="none" stroke="#63b8ff" d="M220.74,-83.5C209.04,-83.5 197.07,-83.5 186.68,-83.5"/>
<polygon fill="#63b8ff" stroke="#63b8ff" points="220.9,-87 230.9,-83.5 220.9,-80 220.9,-87"/>
</g>
<!-- Node5 -->
<g id="node5" class="node">
<title>Node5</title>
<g id="a_node5"><a xlink:href="common_8c.html#a70f6100e4f948b633c942e5c6e4c209a" target="_top" xlink:title="EEPROMの値を読み書きして初期状態を設定する関数">
<polygon fill="white" stroke="#666666" points="192,-56 119,-56 119,-37 192,-37 192,-56"/>
<text text-anchor="middle" x="155.5" y="-44" font-family="Helvetica,sans-Serif" font-size="10.00">setInitState</text>
</a>
</g>
</g>
<!-- Node1&#45;&gt;Node5 -->
<g id="edge4" class="edge">
<title>Node1&#45;&gt;Node5</title>
<path fill="none" stroke="#63b8ff" d="M234.31,-70.9C218.9,-66.07 201.58,-60.63 187.2,-56.12"/>
<polygon fill="#63b8ff" stroke="#63b8ff" points="233.52,-74.32 244.11,-73.97 235.62,-67.64 233.52,-74.32"/>
</g>
<!-- Node4 -->
<g id="node4" class="node">
<title>Node4</title>
<g id="a_node4"><a xlink:href="PIC12F1822_8c.html#a4e0a46b9474f02713855286ac17dac6d" target="_top" xlink:title=" ">
<polygon fill="white" stroke="#666666" points="74.5,-93 5.5,-93 5.5,-74 74.5,-74 74.5,-93"/>
<text text-anchor="middle" x="40" y="-81" font-family="Helvetica,sans-Serif" font-size="10.00">__interrupt</text>
</a>
</g>
</g>
<!-- Node3&#45;&gt;Node4 -->
<g id="edge3" class="edge">
<title>Node3&#45;&gt;Node4</title>
<path fill="none" stroke="#63b8ff" d="M114.36,-83.5C101.45,-83.5 87.28,-83.5 74.87,-83.5"/>
<polygon fill="#63b8ff" stroke="#63b8ff" points="114.38,-87 124.38,-83.5 114.38,-80 114.38,-87"/>
</g>
<!-- Node6 -->
<g id="node6" class="node">
<title>Node6</title>
<g id="a_node6"><a xlink:href="PIC12F1822_8c.html#ae333b3351e63da959ca986e52324d850" target="_top" xlink:title=" ">
<polygon fill="white" stroke="#666666" points="80,-56 0,-56 0,-37 80,-37 80,-56"/>
<text text-anchor="middle" x="40" y="-44" font-family="Helvetica,sans-Serif" font-size="10.00">init_interrupt</text>
</a>
</g>
</g>
<!-- Node5&#45;&gt;Node6 -->
<g id="edge5" class="edge">
<title>Node5&#45;&gt;Node6</title>
<path fill="none" stroke="#63b8ff" d="M108.78,-46.5C99.25,-46.5 89.28,-46.5 80.02,-46.5"/>
<polygon fill="#63b8ff" stroke="#63b8ff" points="108.9,-50 118.9,-46.5 108.9,-43 108.9,-50"/>
</g>
<!-- Node7 -->
<g id="node7" class="node">
<title>Node7</title>
<g id="a_node7"><a xlink:href="PIC12F1822_8c.html#ae2e5e1fba2eac02c6221fd1ac93eaec8" target="_top" xlink:title="諸々の初期化を行う関数（スキャン式）">
<polygon fill="white" stroke="#666666" points="70,-19 10,-19 10,0 70,0 70,-19"/>
<text text-anchor="middle" x="40" y="-7" font-family="Helvetica,sans-Serif" font-size="10.00">init_scan</text>
</a>
</g>
</g>
<!-- Node5&#45;&gt;Node7 -->
<g id="edge6" class="edge">
<title>Node5&#45;&gt;Node7</title>
<path fill="none" stroke="#63b8ff" d="M115.34,-33.73C100.5,-28.9 83.88,-23.48 70.13,-19"/>
<polygon fill="#63b8ff" stroke="#63b8ff" points="114.68,-37.2 125.27,-36.97 116.85,-30.54 114.68,-37.2"/>
</g>
</g>
</svg>
