<?xml version="1.0" encoding="UTF-8" standalone="no"?>
<!DOCTYPE svg PUBLIC "-//W3C//DTD SVG 1.1//EN"
 "http://www.w3.org/Graphics/SVG/1.1/DTD/svg11.dtd">
<!-- Generated by graphviz version 2.43.0 (0)
 -->
<!-- Title: header.h Pages: 1 -->
<svg width="342pt" height="82pt"
 viewBox="0.00 0.00 341.50 82.00" xmlns="http://www.w3.org/2000/svg" xmlns:xlink="http://www.w3.org/1999/xlink">
<g id="graph0" class="graph" transform="scale(1 1) rotate(0) translate(4 78)">
<title>header.h</title>
<!-- Node1 -->
<g id="node1" class="node">
<title>Node1</title>
<g id="a_node1"><a xlink:title=" ">
<polygon fill="#999999" stroke="#666666" points="215,-74 156,-74 156,-55 215,-55 215,-74"/>
<text text-anchor="middle" x="185.5" y="-62" font-family="Helvetica,sans-Serif" font-size="10.00">header.h</text>
</a>
</g>
</g>
<!-- Node2 -->
<g id="node2" class="node">
<title>Node2</title>
<g id="a_node2"><a xlink:href="PIC12F1822_8c.html" target="_top" xlink:title=" ">
<polygon fill="white" stroke="#666666" points="83,-19 0,-19 0,0 83,0 83,-19"/>
<text text-anchor="middle" x="41.5" y="-7" font-family="Helvetica,sans-Serif" font-size="10.00">PIC12F1822.c</text>
</a>
</g>
</g>
<!-- Node1&#45;&gt;Node2 -->
<g id="edge1" class="edge">
<title>Node1&#45;&gt;Node2</title>
<path fill="none" stroke="#63b8ff" d="M152.68,-51.42C125.97,-41.59 88.9,-27.95 65.06,-19.17"/>
<polygon fill="#63b8ff" stroke="#63b8ff" points="151.77,-54.82 162.36,-54.98 154.19,-48.25 151.77,-54.82"/>
</g>
<!-- Node3 -->
<g id="node3" class="node">
<title>Node3</title>
<g id="a_node3"><a xlink:href="PIC12F6XX_8c.html" target="_top" xlink:title=" ">
<polygon fill="white" stroke="#666666" points="179.5,-19 101.5,-19 101.5,0 179.5,0 179.5,-19"/>
<text text-anchor="middle" x="140.5" y="-7" font-family="Helvetica,sans-Serif" font-size="10.00">PIC12F6XX.c</text>
</a>
</g>
</g>
<!-- Node1&#45;&gt;Node3 -->
<g id="edge2" class="edge">
<title>Node1&#45;&gt;Node3</title>
<path fill="none" stroke="#63b8ff" d="M171.45,-46.96C163.61,-37.72 154.17,-26.6 147.79,-19.09"/>
<polygon fill="#63b8ff" stroke="#63b8ff" points="168.93,-49.39 178.07,-54.75 174.26,-44.86 168.93,-49.39"/>
</g>
<!-- Node4 -->
<g id="node4" class="node">
<title>Node4</title>
<g id="a_node4"><a xlink:href="common_8c.html" target="_top" xlink:title="PICマイコンによらず共通の関数を定義するファイル">
<polygon fill="white" stroke="#666666" points="265.5,-19 197.5,-19 197.5,0 265.5,0 265.5,-19"/>
<text text-anchor="middle" x="231.5" y="-7" font-family="Helvetica,sans-Serif" font-size="10.00">common.c</text>
</a>
</g>
</g>
<!-- Node1&#45;&gt;Node4 -->
<g id="edge3" class="edge">
<title>Node1&#45;&gt;Node4</title>
<path fill="none" stroke="#63b8ff" d="M199.86,-46.96C207.87,-37.72 217.53,-26.6 224.05,-19.09"/>
<polygon fill="#63b8ff" stroke="#63b8ff" points="197.01,-44.9 193.1,-54.75 202.29,-49.49 197.01,-44.9"/>
</g>
<!-- Node5 -->
<g id="node5" class="node">
<title>Node5</title>
<g id="a_node5"><a xlink:href="main_8c.html" target="_top" xlink:title="Program for Normal True Bypass with PIC microcontroller.">
<polygon fill="white" stroke="#666666" points="333.5,-19 283.5,-19 283.5,0 333.5,0 333.5,-19"/>
<text text-anchor="middle" x="308.5" y="-7" font-family="Helvetica,sans-Serif" font-size="10.00">main.c</text>
</a>
</g>
</g>
<!-- Node1&#45;&gt;Node5 -->
<g id="edge4" class="edge">
<title>Node1&#45;&gt;Node5</title>
<path fill="none" stroke="#63b8ff" d="M214.75,-50.9C237.47,-41.11 268.37,-27.79 288.38,-19.17"/>
<polygon fill="#63b8ff" stroke="#63b8ff" points="213.06,-47.81 205.26,-54.98 215.83,-54.24 213.06,-47.81"/>
</g>
</g>
</svg>
