<?xml version="1.0" encoding="UTF-8" standalone="no"?>
<!DOCTYPE svg PUBLIC "-//W3C//DTD SVG 1.1//EN"
 "http://www.w3.org/Graphics/SVG/1.1/DTD/svg11.dtd">
<!-- Generated by graphviz version 2.43.0 (0)
 -->
<!-- Title: main.c Pages: 1 -->
<svg width="249pt" height="192pt"
 viewBox="0.00 0.00 248.50 192.00" xmlns="http://www.w3.org/2000/svg" xmlns:xlink="http://www.w3.org/1999/xlink">
<g id="graph0" class="graph" transform="scale(1 1) rotate(0) translate(4 188)">
<title>main.c</title>
<!-- Node1 -->
<g id="node1" class="node">
<title>Node1</title>
<g id="a_node1"><a xlink:title="Program for Normal True Bypass with PIC microcontroller.">
<polygon fill="#999999" stroke="#666666" points="177,-184 127,-184 127,-165 177,-165 177,-184"/>
<text text-anchor="middle" x="152" y="-172" font-family="Helvetica,sans-Serif" font-size="10.00">main.c</text>
</a>
</g>
</g>
<!-- Node2 -->
<g id="node2" class="node">
<title>Node2</title>
<g id="a_node2"><a xlink:href="header_8h.html" target="_top" xlink:title=" ">
<polygon fill="white" stroke="#666666" points="181.5,-129 122.5,-129 122.5,-110 181.5,-110 181.5,-129"/>
<text text-anchor="middle" x="152" y="-117" font-family="Helvetica,sans-Serif" font-size="10.00">header.h</text>
</a>
</g>
</g>
<!-- Node1&#45;&gt;Node2 -->
<g id="edge1" class="edge">
<title>Node1&#45;&gt;Node2</title>
<path fill="none" stroke="#63b8ff" d="M152,-164.75C152,-157.8 152,-147.85 152,-139.13"/>
<polygon fill="#63b8ff" stroke="#63b8ff" points="155.5,-139.09 152,-129.09 148.5,-139.09 155.5,-139.09"/>
</g>
<!-- Node3 -->
<g id="node3" class="node">
<title>Node3</title>
<g id="a_node3"><a xlink:title=" ">
<polygon fill="#e0e0e0" stroke="#999999" points="62,-19 0,-19 0,0 62,0 62,-19"/>
<text text-anchor="middle" x="31" y="-7" font-family="Helvetica,sans-Serif" font-size="10.00">stdbool.h</text>
</a>
</g>
</g>
<!-- Node2&#45;&gt;Node3 -->
<g id="edge2" class="edge">
<title>Node2&#45;&gt;Node3</title>
<path fill="none" stroke="#63b8ff" d="M122.29,-118.16C90.35,-116 40.94,-107.09 17,-74 7.31,-60.6 13.29,-41.75 20.18,-28.07"/>
<polygon fill="#63b8ff" stroke="#63b8ff" points="23.33,-29.61 25.15,-19.18 17.22,-26.2 23.33,-29.61"/>
</g>
<!-- Node4 -->
<g id="node4" class="node">
<title>Node4</title>
<g id="a_node4"><a xlink:title=" ">
<polygon fill="#e0e0e0" stroke="#999999" points="146.5,-19 93.5,-19 93.5,0 146.5,0 146.5,-19"/>
<text text-anchor="middle" x="120" y="-7" font-family="Helvetica,sans-Serif" font-size="10.00">stdint.h</text>
</a>
</g>
</g>
<!-- Node2&#45;&gt;Node4 -->
<g id="edge3" class="edge">
<title>Node2&#45;&gt;Node4</title>
<path fill="none" stroke="#63b8ff" d="M162.2,-109.86C175.33,-97.62 195.31,-74.56 185,-55 177.76,-41.27 164.17,-30.97 151.28,-23.76"/>
<polygon fill="#63b8ff" stroke="#63b8ff" points="152.61,-20.51 142.12,-19.05 149.41,-26.73 152.61,-20.51"/>
</g>
<!-- Node5 -->
<g id="node5" class="node">
<title>Node5</title>
<g id="a_node5"><a xlink:title=" ">
<polygon fill="#e0e0e0" stroke="#999999" points="240.5,-19 203.5,-19 203.5,0 240.5,0 240.5,-19"/>
<text text-anchor="middle" x="222" y="-7" font-family="Helvetica,sans-Serif" font-size="10.00">xc.h</text>
</a>
</g>
</g>
<!-- Node2&#45;&gt;Node5 -->
<g id="edge4" class="edge">
<title>Node2&#45;&gt;Node5</title>
<path fill="none" stroke="#63b8ff" d="M164.23,-109.91C175.01,-101.78 190.43,-88.65 200,-74 208.97,-60.26 214.72,-42.46 218.09,-29.2"/>
<polygon fill="#63b8ff" stroke="#63b8ff" points="221.53,-29.85 220.37,-19.32 214.71,-28.27 221.53,-29.85"/>
</g>
<!-- Node6 -->
<g id="node6" class="node">
<title>Node6</title>
<g id="a_node6"><a xlink:href="PIC12F1822_8h.html" target="_top" xlink:title=" ">
<polygon fill="white" stroke="#666666" points="176,-74 26,-74 26,-55 176,-55 176,-74"/>
<text text-anchor="middle" x="101" y="-62" font-family="Helvetica,sans-Serif" font-size="10.00">./PIC12F1822/PIC12F1822.h</text>
</a>
</g>
</g>
<!-- Node2&#45;&gt;Node6 -->
<g id="edge5" class="edge">
<title>Node2&#45;&gt;Node6</title>
<path fill="none" stroke="#63b8ff" d="M143.58,-109.75C136.23,-102.11 125.37,-90.82 116.46,-81.56"/>
<polygon fill="#63b8ff" stroke="#63b8ff" points="118.72,-78.87 109.26,-74.09 113.68,-83.72 118.72,-78.87"/>
</g>
<!-- Node6&#45;&gt;Node3 -->
<g id="edge6" class="edge">
<title>Node6&#45;&gt;Node3</title>
<path fill="none" stroke="#63b8ff" d="M89.75,-54.98C79.2,-47 63.2,-34.88 50.56,-25.31"/>
<polygon fill="#63b8ff" stroke="#63b8ff" points="52.54,-22.42 42.45,-19.17 48.31,-28 52.54,-22.42"/>
</g>
<!-- Node6&#45;&gt;Node4 -->
<g id="edge7" class="edge">
<title>Node6&#45;&gt;Node4</title>
<path fill="none" stroke="#63b8ff" d="M104.14,-54.75C106.68,-47.65 110.36,-37.4 113.53,-28.56"/>
<polygon fill="#63b8ff" stroke="#63b8ff" points="116.84,-29.68 116.92,-19.09 110.25,-27.32 116.84,-29.68"/>
</g>
<!-- Node6&#45;&gt;Node5 -->
<g id="edge8" class="edge">
<title>Node6&#45;&gt;Node5</title>
<path fill="none" stroke="#63b8ff" d="M120.44,-54.98C140.34,-46.27 171.47,-32.63 194.02,-22.76"/>
<polygon fill="#63b8ff" stroke="#63b8ff" points="195.65,-25.86 203.4,-18.65 192.84,-19.45 195.65,-25.86"/>
</g>
</g>
</svg>
