<?xml version="1.0" encoding="UTF-8" standalone="no"?>
<!DOCTYPE svg PUBLIC "-//W3C//DTD SVG 1.1//EN"
 "http://www.w3.org/Graphics/SVG/1.1/DTD/svg11.dtd">
<!-- Generated by graphviz version 2.43.0 (0)
 -->
<!-- Title: main Pages: 1 -->
<svg width="417pt" height="138pt"
 viewBox="0.00 0.00 417.00 138.00" xmlns="http://www.w3.org/2000/svg" xmlns:xlink="http://www.w3.org/1999/xlink">
<g id="graph0" class="graph" transform="scale(1 1) rotate(0) translate(4 134)">
<title>main</title>
<!-- Node1 -->
<g id="node1" class="node">
<title>Node1</title>
<g id="a_node1"><a xlink:title="サボり上司">
<polygon fill="#999999" stroke="#666666" points="41,-110 0,-110 0,-91 41,-91 41,-110"/>
<text text-anchor="middle" x="20.5" y="-98" font-family="Helvetica,sans-Serif" font-size="10.00">main</text>
</a>
</g>
</g>
<!-- Node2 -->
<g id="node2" class="node">
<title>Node2</title>
<g id="a_node2"><a xlink:href="common_8c.html#a3ba6c01a075782637841cbf3e6c1a623" target="_top" xlink:title="バイパスの挙動を定義する関数（割り込み式）">
<polygon fill="white" stroke="#666666" points="175,-129 77,-129 77,-110 175,-110 175,-129"/>
<text text-anchor="middle" x="126" y="-117" font-family="Helvetica,sans-Serif" font-size="10.00">bypass_interrupt</text>
</a>
</g>
</g>
<!-- Node1&#45;&gt;Node2 -->
<g id="edge1" class="edge">
<title>Node1&#45;&gt;Node2</title>
<path fill="none" stroke="#63b8ff" d="M41.46,-104.16C48.88,-105.53 57.72,-107.15 66.83,-108.82"/>
<polygon fill="#63b8ff" stroke="#63b8ff" points="66.3,-112.28 76.77,-110.65 67.57,-105.4 66.3,-112.28"/>
</g>
<!-- Node3 -->
<g id="node3" class="node">
<title>Node3</title>
<g id="a_node3"><a xlink:href="PIC12F6XX_8c.html#aabd565d529ade16a49e9776a85836324" target="_top" xlink:title=" ">
<polygon fill="white" stroke="#666666" points="166,-92 86,-92 86,-73 166,-73 166,-92"/>
<text text-anchor="middle" x="126" y="-80" font-family="Helvetica,sans-Serif" font-size="10.00">init_interrupt</text>
</a>
</g>
</g>
<!-- Node1&#45;&gt;Node3 -->
<g id="edge2" class="edge">
<title>Node1&#45;&gt;Node3</title>
<path fill="none" stroke="#63b8ff" d="M41.46,-97.03C51.28,-95.32 63.59,-93.18 75.73,-91.07"/>
<polygon fill="#63b8ff" stroke="#63b8ff" points="76.56,-94.48 85.82,-89.31 75.36,-87.58 76.56,-94.48"/>
</g>
<!-- Node4 -->
<g id="node4" class="node">
<title>Node4</title>
<g id="a_node4"><a xlink:href="common_8c.html#aa8c277fdab0cc5bc32555aa51957f23b" target="_top" xlink:title="アナログ機能を無効化する関数">
<polygon fill="white" stroke="#666666" points="280,-111 215,-111 215,-92 280,-92 280,-111"/>
<text text-anchor="middle" x="247.5" y="-99" font-family="Helvetica,sans-Serif" font-size="10.00">disAnalog</text>
</a>
</g>
</g>
<!-- Node3&#45;&gt;Node4 -->
<g id="edge3" class="edge">
<title>Node3&#45;&gt;Node4</title>
<path fill="none" stroke="#63b8ff" d="M166.13,-88.72C178.47,-90.68 192.14,-92.86 204.66,-94.85"/>
<polygon fill="#63b8ff" stroke="#63b8ff" points="204.42,-98.35 214.85,-96.47 205.52,-91.44 204.42,-98.35"/>
</g>
<!-- Node5 -->
<g id="node5" class="node">
<title>Node5</title>
<g id="a_node5"><a xlink:href="common_8c.html#a70f6100e4f948b633c942e5c6e4c209a" target="_top" xlink:title="EEPROMの値を読み書きして初期状態を設定する関数">
<polygon fill="white" stroke="#666666" points="284,-74 211,-74 211,-55 284,-55 284,-74"/>
<text text-anchor="middle" x="247.5" y="-62" font-family="Helvetica,sans-Serif" font-size="10.00">setInitState</text>
</a>
</g>
</g>
<!-- Node3&#45;&gt;Node5 -->
<g id="edge4" class="edge">
<title>Node3&#45;&gt;Node5</title>
<path fill="none" stroke="#63b8ff" d="M166.13,-76.61C177.18,-74.94 189.3,-73.12 200.7,-71.4"/>
<polygon fill="#63b8ff" stroke="#63b8ff" points="201.55,-74.81 210.92,-69.86 200.51,-67.89 201.55,-74.81"/>
</g>
<!-- Node6 -->
<g id="node6" class="node">
<title>Node6</title>
<g id="a_node6"><a xlink:href="PIC12F6XX_8c.html#a6933d56410a79bc99303c7f4f54521ca" target="_top" xlink:title="EEPROMからデータを読み込む関数">
<polygon fill="white" stroke="#666666" points="394,-130 335,-130 335,-111 394,-111 394,-130"/>
<text text-anchor="middle" x="364.5" y="-118" font-family="Helvetica,sans-Serif" font-size="10.00">eepRead</text>
</a>
</g>
</g>
<!-- Node5&#45;&gt;Node6 -->
<g id="edge5" class="edge">
<title>Node5&#45;&gt;Node6</title>
<path fill="none" stroke="#63b8ff" d="M266.37,-74.05C286.65,-84.89 317.3,-101.23 320,-102.5 323.13,-103.97 326.41,-105.45 329.7,-106.89"/>
<polygon fill="#63b8ff" stroke="#63b8ff" points="328.36,-110.12 338.93,-110.82 331.1,-103.68 328.36,-110.12"/>
</g>
<!-- Node7 -->
<g id="node7" class="node">
<title>Node7</title>
<g id="a_node7"><a xlink:href="PIC12F6XX_8c.html#a64719dac9a22c3c4752c799ffc69b25a" target="_top" xlink:title="EEPROMにデータを書き込む関数">
<polygon fill="white" stroke="#666666" points="395,-93 334,-93 334,-74 395,-74 395,-93"/>
<text text-anchor="middle" x="364.5" y="-81" font-family="Helvetica,sans-Serif" font-size="10.00">eepWrite</text>
</a>
</g>
</g>
<!-- Node5&#45;&gt;Node7 -->
<g id="edge6" class="edge">
<title>Node5&#45;&gt;Node7</title>
<path fill="none" stroke="#63b8ff" d="M284.26,-70.41C296.85,-72.49 311.07,-74.84 323.95,-76.97"/>
<polygon fill="#63b8ff" stroke="#63b8ff" points="323.51,-80.44 333.94,-78.62 324.65,-73.53 323.51,-80.44"/>
</g>
<!-- Node8 -->
<g id="node8" class="node">
<title>Node8</title>
<g id="a_node8"><a xlink:href="common_8c.html#ab1be8587a70ecef36ec9bc5afc406df8" target="_top" xlink:title="LEDを点滅させる関数">
<polygon fill="white" stroke="#666666" points="394,-56 335,-56 335,-37 394,-37 394,-56"/>
<text text-anchor="middle" x="364.5" y="-44" font-family="Helvetica,sans-Serif" font-size="10.00">flashLED</text>
</a>
</g>
</g>
<!-- Node5&#45;&gt;Node8 -->
<g id="edge7" class="edge">
<title>Node5&#45;&gt;Node8</title>
<path fill="none" stroke="#63b8ff" d="M284.26,-58.9C297.05,-56.9 311.54,-54.63 324.59,-52.59"/>
<polygon fill="#63b8ff" stroke="#63b8ff" points="325.35,-56.01 334.69,-51.01 324.27,-49.1 325.35,-56.01"/>
</g>
<!-- Node9 -->
<g id="node9" class="node">
<title>Node9</title>
<g id="a_node9"><a xlink:href="header_8h.html#ad27f22fae9a2bba28c51ff52680d9b58" target="_top" xlink:title="チャタリングを待つ関数">
<polygon fill="white" stroke="#666666" points="409,-19 320,-19 320,0 409,0 409,-19"/>
<text text-anchor="middle" x="364.5" y="-7" font-family="Helvetica,sans-Serif" font-size="10.00">waitChattering</text>
</a>
</g>
</g>
<!-- Node5&#45;&gt;Node9 -->
<g id="edge8" class="edge">
<title>Node5&#45;&gt;Node9</title>
<path fill="none" stroke="#63b8ff" d="M266.88,-54.9C281.24,-47.48 301.76,-37.07 320,-28.5 323.67,-26.78 327.54,-25.01 331.39,-23.29"/>
<polygon fill="#63b8ff" stroke="#63b8ff" points="333.08,-26.37 340.82,-19.13 330.26,-19.96 333.08,-26.37"/>
</g>
</g>
</svg>
