<?xml version="1.0" encoding="UTF-8" standalone="no"?>
<!DOCTYPE svg PUBLIC "-//W3C//DTD SVG 1.1//EN"
 "http://www.w3.org/Graphics/SVG/1.1/DTD/svg11.dtd">
<!-- Generated by graphviz version 2.43.0 (0)
 -->
<!-- Title: init_interrupt Pages: 1 -->
<svg width="322pt" height="138pt"
 viewBox="0.00 0.00 322.00 138.00" xmlns="http://www.w3.org/2000/svg" xmlns:xlink="http://www.w3.org/1999/xlink">
<g id="graph0" class="graph" transform="scale(1 1) rotate(0) translate(4 134)">
<title>init_interrupt</title>
<!-- Node1 -->
<g id="node1" class="node">
<title>Node1</title>
<g id="a_node1"><a xlink:title=" ">
<polygon fill="#999999" stroke="#666666" points="80,-92 0,-92 0,-73 80,-73 80,-92"/>
<text text-anchor="middle" x="40" y="-80" font-family="Helvetica,sans-Serif" font-size="10.00">init_interrupt</text>
</a>
</g>
</g>
<!-- Node2 -->
<g id="node2" class="node">
<title>Node2</title>
<g id="a_node2"><a xlink:href="common_8c.html#aa8c277fdab0cc5bc32555aa51957f23b" target="_top" xlink:title="アナログ機能を無効化する関数">
<polygon fill="white" stroke="#666666" points="185,-111 120,-111 120,-92 185,-92 185,-111"/>
<text text-anchor="middle" x="152.5" y="-99" font-family="Helvetica,sans-Serif" font-size="10.00">disAnalog</text>
</a>
</g>
</g>
<!-- Node1&#45;&gt;Node2 -->
<g id="edge1" class="edge">
<title>Node1&#45;&gt;Node2</title>
<path fill="none" stroke="#63b8ff" d="M80.27,-89.25C89.94,-90.91 100.32,-92.7 110.09,-94.38"/>
<polygon fill="#63b8ff" stroke="#63b8ff" points="109.54,-97.84 119.99,-96.08 110.72,-90.94 109.54,-97.84"/>
</g>
<!-- Node3 -->
<g id="node3" class="node">
<title>Node3</title>
<g id="a_node3"><a xlink:href="common_8c.html#a70f6100e4f948b633c942e5c6e4c209a" target="_top" xlink:title="EEPROMの値を読み書きして初期状態を設定する関数">
<polygon fill="white" stroke="#666666" points="189,-74 116,-74 116,-55 189,-55 189,-74"/>
<text text-anchor="middle" x="152.5" y="-62" font-family="Helvetica,sans-Serif" font-size="10.00">setInitState</text>
</a>
</g>
</g>
<!-- Node1&#45;&gt;Node3 -->
<g id="edge2" class="edge">
<title>Node1&#45;&gt;Node3</title>
<path fill="none" stroke="#63b8ff" d="M80.27,-76.1C88.47,-74.77 97.19,-73.35 105.61,-71.98"/>
<polygon fill="#63b8ff" stroke="#63b8ff" points="106.37,-75.4 115.67,-70.34 105.24,-68.49 106.37,-75.4"/>
</g>
<!-- Node4 -->
<g id="node4" class="node">
<title>Node4</title>
<g id="a_node4"><a xlink:href="PIC12F6XX_8c.html#a6933d56410a79bc99303c7f4f54521ca" target="_top" xlink:title="EEPROMからデータを読み込む関数">
<polygon fill="white" stroke="#666666" points="299,-130 240,-130 240,-111 299,-111 299,-130"/>
<text text-anchor="middle" x="269.5" y="-118" font-family="Helvetica,sans-Serif" font-size="10.00">eepRead</text>
</a>
</g>
</g>
<!-- Node3&#45;&gt;Node4 -->
<g id="edge3" class="edge">
<title>Node3&#45;&gt;Node4</title>
<path fill="none" stroke="#63b8ff" d="M171.37,-74.05C191.65,-84.89 222.3,-101.23 225,-102.5 228.13,-103.97 231.41,-105.45 234.7,-106.89"/>
<polygon fill="#63b8ff" stroke="#63b8ff" points="233.36,-110.12 243.93,-110.82 236.1,-103.68 233.36,-110.12"/>
</g>
<!-- Node5 -->
<g id="node5" class="node">
<title>Node5</title>
<g id="a_node5"><a xlink:href="PIC12F6XX_8c.html#a64719dac9a22c3c4752c799ffc69b25a" target="_top" xlink:title="EEPROMにデータを書き込む関数">
<polygon fill="white" stroke="#666666" points="300,-93 239,-93 239,-74 300,-74 300,-93"/>
<text text-anchor="middle" x="269.5" y="-81" font-family="Helvetica,sans-Serif" font-size="10.00">eepWrite</text>
</a>
</g>
</g>
<!-- Node3&#45;&gt;Node5 -->
<g id="edge4" class="edge">
<title>Node3&#45;&gt;Node5</title>
<path fill="none" stroke="#63b8ff" d="M189.26,-70.41C201.85,-72.49 216.07,-74.84 228.95,-76.97"/>
<polygon fill="#63b8ff" stroke="#63b8ff" points="228.51,-80.44 238.94,-78.62 229.65,-73.53 228.51,-80.44"/>
</g>
<!-- Node6 -->
<g id="node6" class="node">
<title>Node6</title>
<g id="a_node6"><a xlink:href="common_8c.html#ab1be8587a70ecef36ec9bc5afc406df8" target="_top" xlink:title="LEDを点滅させる関数">
<polygon fill="white" stroke="#666666" points="299,-56 240,-56 240,-37 299,-37 299,-56"/>
<text text-anchor="middle" x="269.5" y="-44" font-family="Helvetica,sans-Serif" font-size="10.00">flashLED</text>
</a>
</g>
</g>
<!-- Node3&#45;&gt;Node6 -->
<g id="edge5" class="edge">
<title>Node3&#45;&gt;Node6</title>
<path fill="none" stroke="#63b8ff" d="M189.26,-58.9C202.05,-56.9 216.54,-54.63 229.59,-52.59"/>
<polygon fill="#63b8ff" stroke="#63b8ff" points="230.35,-56.01 239.69,-51.01 229.27,-49.1 230.35,-56.01"/>
</g>
<!-- Node7 -->
<g id="node7" class="node">
<title>Node7</title>
<g id="a_node7"><a xlink:href="header_8h.html#ad27f22fae9a2bba28c51ff52680d9b58" target="_top" xlink:title="チャタリングを待つ関数">
<polygon fill="white" stroke="#666666" points="314,-19 225,-19 225,0 314,0 314,-19"/>
<text text-anchor="middle" x="269.5" y="-7" font-family="Helvetica,sans-Serif" font-size="10.00">waitChattering</text>
</a>
</g>
</g>
<!-- Node3&#45;&gt;Node7 -->
<g id="edge6" class="edge">
<title>Node3&#45;&gt;Node7</title>
<path fill="none" stroke="#63b8ff" d="M171.88,-54.9C186.24,-47.48 206.76,-37.07 225,-28.5 228.67,-26.78 232.54,-25.01 236.39,-23.29"/>
<polygon fill="#63b8ff" stroke="#63b8ff" points="238.08,-26.37 245.82,-19.13 235.26,-19.96 238.08,-26.37"/>
</g>
</g>
</svg>
