<?xml version="1.0" encoding="UTF-8" standalone="no"?>
<!DOCTYPE svg PUBLIC "-//W3C//DTD SVG 1.1//EN"
 "http://www.w3.org/Graphics/SVG/1.1/DTD/svg11.dtd">
<!-- Generated by graphviz version 2.43.0 (0)
 -->
<!-- Title: PIC12F1822.h Pages: 1 -->
<svg width="342pt" height="137pt"
 viewBox="0.00 0.00 341.50 137.00" xmlns="http://www.w3.org/2000/svg" xmlns:xlink="http://www.w3.org/1999/xlink">
<g id="graph0" class="graph" transform="scale(1 1) rotate(0) translate(4 133)">
<title>PIC12F1822.h</title>
<!-- Node1 -->
<g id="node1" class="node">
<title>Node1</title>
<g id="a_node1"><a xlink:title=" ">
<polygon fill="#999999" stroke="#666666" points="133,-129 50,-129 50,-110 133,-110 133,-129"/>
<text text-anchor="middle" x="91.5" y="-117" font-family="Helvetica,sans-Serif" font-size="10.00">PIC12F1822.h</text>
</a>
</g>
</g>
<!-- Node2 -->
<g id="node2" class="node">
<title>Node2</title>
<g id="a_node2"><a xlink:href="PIC12F1822_8c.html" target="_top" xlink:title=" ">
<polygon fill="white" stroke="#666666" points="83,-19 0,-19 0,0 83,0 83,-19"/>
<text text-anchor="middle" x="41.5" y="-7" font-family="Helvetica,sans-Serif" font-size="10.00">PIC12F1822.c</text>
</a>
</g>
</g>
<!-- Node1&#45;&gt;Node2 -->
<g id="edge1" class="edge">
<title>Node1&#45;&gt;Node2</title>
<path fill="none" stroke="#63b8ff" d="M83.14,-100.44C72.25,-76.92 53.65,-36.73 45.51,-19.16"/>
<polygon fill="#63b8ff" stroke="#63b8ff" points="80.03,-102.06 87.41,-109.66 86.38,-99.12 80.03,-102.06"/>
</g>
<!-- Node3 -->
<g id="node3" class="node">
<title>Node3</title>
<g id="a_node3"><a xlink:href="header_8h.html" target="_top" xlink:title=" ">
<polygon fill="white" stroke="#666666" points="170,-74 111,-74 111,-55 170,-55 170,-74"/>
<text text-anchor="middle" x="140.5" y="-62" font-family="Helvetica,sans-Serif" font-size="10.00">header.h</text>
</a>
</g>
</g>
<!-- Node1&#45;&gt;Node3 -->
<g id="edge2" class="edge">
<title>Node1&#45;&gt;Node3</title>
<path fill="none" stroke="#63b8ff" d="M106.53,-102.24C115.12,-92.95 125.54,-81.68 132.56,-74.09"/>
<polygon fill="#63b8ff" stroke="#63b8ff" points="103.81,-100.03 99.59,-109.75 108.95,-104.78 103.81,-100.03"/>
</g>
<!-- Node3&#45;&gt;Node2 -->
<g id="edge3" class="edge">
<title>Node3&#45;&gt;Node2</title>
<path fill="none" stroke="#63b8ff" d="M115.72,-50.23C97.56,-40.51 73.44,-27.6 57.7,-19.17"/>
<polygon fill="#63b8ff" stroke="#63b8ff" points="114.13,-53.35 124.59,-54.98 117.43,-47.18 114.13,-53.35"/>
</g>
<!-- Node4 -->
<g id="node4" class="node">
<title>Node4</title>
<g id="a_node4"><a xlink:href="PIC12F6XX_8c.html" target="_top" xlink:title=" ">
<polygon fill="white" stroke="#666666" points="179.5,-19 101.5,-19 101.5,0 179.5,0 179.5,-19"/>
<text text-anchor="middle" x="140.5" y="-7" font-family="Helvetica,sans-Serif" font-size="10.00">PIC12F6XX.c</text>
</a>
</g>
</g>
<!-- Node3&#45;&gt;Node4 -->
<g id="edge4" class="edge">
<title>Node3&#45;&gt;Node4</title>
<path fill="none" stroke="#63b8ff" d="M140.5,-44.66C140.5,-35.93 140.5,-25.99 140.5,-19.09"/>
<polygon fill="#63b8ff" stroke="#63b8ff" points="137,-44.75 140.5,-54.75 144,-44.75 137,-44.75"/>
</g>
<!-- Node5 -->
<g id="node5" class="node">
<title>Node5</title>
<g id="a_node5"><a xlink:href="common_8c.html" target="_top" xlink:title="PICマイコンによらず共通の関数を定義するファイル">
<polygon fill="white" stroke="#666666" points="265.5,-19 197.5,-19 197.5,0 265.5,0 265.5,-19"/>
<text text-anchor="middle" x="231.5" y="-7" font-family="Helvetica,sans-Serif" font-size="10.00">common.c</text>
</a>
</g>
</g>
<!-- Node3&#45;&gt;Node5 -->
<g id="edge5" class="edge">
<title>Node3&#45;&gt;Node5</title>
<path fill="none" stroke="#63b8ff" d="M164.2,-49.7C180.78,-40.04 202.41,-27.44 216.61,-19.17"/>
<polygon fill="#63b8ff" stroke="#63b8ff" points="162,-46.93 155.12,-54.98 165.52,-52.98 162,-46.93"/>
</g>
<!-- Node6 -->
<g id="node6" class="node">
<title>Node6</title>
<g id="a_node6"><a xlink:href="main_8c.html" target="_top" xlink:title="Program for Normal True Bypass with PIC microcontroller.">
<polygon fill="white" stroke="#666666" points="333.5,-19 283.5,-19 283.5,0 333.5,0 333.5,-19"/>
<text text-anchor="middle" x="308.5" y="-7" font-family="Helvetica,sans-Serif" font-size="10.00">main.c</text>
</a>
</g>
</g>
<!-- Node3&#45;&gt;Node6 -->
<g id="edge6" class="edge">
<title>Node3&#45;&gt;Node6</title>
<path fill="none" stroke="#63b8ff" d="M177.43,-51.85C209.62,-41.7 255.43,-27.24 283.49,-18.39"/>
<polygon fill="#63b8ff" stroke="#63b8ff" points="175.98,-48.64 167.49,-54.98 178.08,-55.31 175.98,-48.64"/>
</g>
</g>
</svg>
