<?xml version="1.0" encoding="UTF-8" standalone="no"?>
<!DOCTYPE svg PUBLIC "-//W3C//DTD SVG 1.1//EN"
 "http://www.w3.org/Graphics/SVG/1.1/DTD/svg11.dtd">
<!-- Generated by graphviz version 2.43.0 (0)
 -->
<!-- Title: PIC12F6XX.c Pages: 1 -->
<svg width="297pt" height="192pt"
 viewBox="0.00 0.00 297.13 192.00" xmlns="http://www.w3.org/2000/svg" xmlns:xlink="http://www.w3.org/1999/xlink">
<g id="graph0" class="graph" transform="scale(1 1) rotate(0) translate(4 188)">
<title>PIC12F6XX.c</title>
<!-- Node1 -->
<g id="node1" class="node">
<title>Node1</title>
<g id="a_node1"><a xlink:title=" ">
<polygon fill="#999999" stroke="#666666" points="158.5,-184 80.5,-184 80.5,-165 158.5,-165 158.5,-184"/>
<text text-anchor="middle" x="119.5" y="-172" font-family="Helvetica,sans-Serif" font-size="10.00">PIC12F6XX.c</text>
</a>
</g>
</g>
<!-- Node2 -->
<g id="node2" class="node">
<title>Node2</title>
<g id="a_node2"><a xlink:href="PIC12F6XX_8h.html" target="_top" xlink:title=" ">
<polygon fill="white" stroke="#666666" points="93,-74 14,-74 14,-55 93,-55 93,-74"/>
<text text-anchor="middle" x="53.5" y="-62" font-family="Helvetica,sans-Serif" font-size="10.00">PIC12F6XX.h</text>
</a>
</g>
</g>
<!-- Node1&#45;&gt;Node2 -->
<g id="edge1" class="edge">
<title>Node1&#45;&gt;Node2</title>
<path fill="none" stroke="#63b8ff" d="M114.09,-164.66C103.16,-146.77 78.25,-106 64,-82.69"/>
<polygon fill="#63b8ff" stroke="#63b8ff" points="66.99,-80.87 58.79,-74.16 61.02,-84.52 66.99,-80.87"/>
</g>
<!-- Node6 -->
<g id="node6" class="node">
<title>Node6</title>
<g id="a_node6"><a xlink:href="header_8h.html" target="_top" xlink:title=" ">
<polygon fill="white" stroke="#666666" points="219.5,-129 151.5,-129 151.5,-110 219.5,-110 219.5,-129"/>
<text text-anchor="middle" x="185.5" y="-117" font-family="Helvetica,sans-Serif" font-size="10.00">../header.h</text>
</a>
</g>
</g>
<!-- Node1&#45;&gt;Node6 -->
<g id="edge5" class="edge">
<title>Node1&#45;&gt;Node6</title>
<path fill="none" stroke="#63b8ff" d="M130.1,-164.98C139.95,-157.07 154.85,-145.11 166.71,-135.58"/>
<polygon fill="#63b8ff" stroke="#63b8ff" points="169.09,-138.16 174.7,-129.17 164.71,-132.7 169.09,-138.16"/>
</g>
<!-- Node3 -->
<g id="node3" class="node">
<title>Node3</title>
<g id="a_node3"><a xlink:title=" ">
<polygon fill="#e0e0e0" stroke="#999999" points="188.5,-19 126.5,-19 126.5,0 188.5,0 188.5,-19"/>
<text text-anchor="middle" x="157.5" y="-7" font-family="Helvetica,sans-Serif" font-size="10.00">stdbool.h</text>
</a>
</g>
</g>
<!-- Node2&#45;&gt;Node3 -->
<g id="edge2" class="edge">
<title>Node2&#45;&gt;Node3</title>
<path fill="none" stroke="#63b8ff" d="M70.21,-54.98C86.71,-46.57 112.19,-33.59 131.37,-23.81"/>
<polygon fill="#63b8ff" stroke="#63b8ff" points="133.16,-26.83 140.48,-19.17 129.98,-20.59 133.16,-26.83"/>
</g>
<!-- Node4 -->
<g id="node4" class="node">
<title>Node4</title>
<g id="a_node4"><a xlink:title=" ">
<polygon fill="#e0e0e0" stroke="#999999" points="80,-19 27,-19 27,0 80,0 80,-19"/>
<text text-anchor="middle" x="53.5" y="-7" font-family="Helvetica,sans-Serif" font-size="10.00">stdint.h</text>
</a>
</g>
</g>
<!-- Node2&#45;&gt;Node4 -->
<g id="edge3" class="edge">
<title>Node2&#45;&gt;Node4</title>
<path fill="none" stroke="#63b8ff" d="M53.5,-54.75C53.5,-47.8 53.5,-37.85 53.5,-29.13"/>
<polygon fill="#63b8ff" stroke="#63b8ff" points="57,-29.09 53.5,-19.09 50,-29.09 57,-29.09"/>
</g>
<!-- Node5 -->
<g id="node5" class="node">
<title>Node5</title>
<g id="a_node5"><a xlink:title=" ">
<polygon fill="#e0e0e0" stroke="#999999" points="244,-19 207,-19 207,0 244,0 244,-19"/>
<text text-anchor="middle" x="225.5" y="-7" font-family="Helvetica,sans-Serif" font-size="10.00">xc.h</text>
</a>
</g>
</g>
<!-- Node2&#45;&gt;Node5 -->
<g id="edge4" class="edge">
<title>Node2&#45;&gt;Node5</title>
<path fill="none" stroke="#63b8ff" d="M81.13,-54.98C113.01,-45.16 165.14,-29.1 197.26,-19.2"/>
<polygon fill="#63b8ff" stroke="#63b8ff" points="198.41,-22.51 206.94,-16.22 196.35,-15.82 198.41,-22.51"/>
</g>
<!-- Node6&#45;&gt;Node3 -->
<g id="edge6" class="edge">
<title>Node6&#45;&gt;Node3</title>
<path fill="none" stroke="#63b8ff" d="M215.11,-109.97C245.67,-99.59 286.64,-80.26 269.5,-55 261.06,-42.57 226.86,-30.09 198.45,-21.52"/>
<polygon fill="#63b8ff" stroke="#63b8ff" points="199.27,-18.11 188.69,-18.66 197.3,-24.83 199.27,-18.11"/>
</g>
<!-- Node6&#45;&gt;Node4 -->
<g id="edge7" class="edge">
<title>Node6&#45;&gt;Node4</title>
<path fill="none" stroke="#63b8ff" d="M151.47,-115.08C104.19,-109.54 22.41,-96.86 4.5,-74 -8.65,-57.24 11.41,-37.83 29.69,-24.93"/>
<polygon fill="#63b8ff" stroke="#63b8ff" points="31.98,-27.61 38.36,-19.16 28.1,-21.79 31.98,-27.61"/>
</g>
<!-- Node6&#45;&gt;Node5 -->
<g id="edge8" class="edge">
<title>Node6&#45;&gt;Node5</title>
<path fill="none" stroke="#63b8ff" d="M219.56,-113.11C242.46,-107.53 271,-96.31 285.5,-74 298.15,-54.52 274.2,-35.63 252.91,-23.59"/>
<polygon fill="#63b8ff" stroke="#63b8ff" points="254.53,-20.48 244.06,-18.86 251.23,-26.66 254.53,-20.48"/>
</g>
<!-- Node7 -->
<g id="node7" class="node">
<title>Node7</title>
<g id="a_node7"><a xlink:href="PIC12F1822_8h.html" target="_top" xlink:title=" ">
<polygon fill="white" stroke="#666666" points="260.5,-74 110.5,-74 110.5,-55 260.5,-55 260.5,-74"/>
<text text-anchor="middle" x="185.5" y="-62" font-family="Helvetica,sans-Serif" font-size="10.00">./PIC12F1822/PIC12F1822.h</text>
</a>
</g>
</g>
<!-- Node6&#45;&gt;Node7 -->
<g id="edge9" class="edge">
<title>Node6&#45;&gt;Node7</title>
<path fill="none" stroke="#63b8ff" d="M185.5,-109.75C185.5,-102.8 185.5,-92.85 185.5,-84.13"/>
<polygon fill="#63b8ff" stroke="#63b8ff" points="189,-84.09 185.5,-74.09 182,-84.09 189,-84.09"/>
</g>
<!-- Node7&#45;&gt;Node3 -->
<g id="edge10" class="edge">
<title>Node7&#45;&gt;Node3</title>
<path fill="none" stroke="#63b8ff" d="M180.87,-54.75C177.04,-47.49 171.47,-36.95 166.73,-27.98"/>
<polygon fill="#63b8ff" stroke="#63b8ff" points="169.8,-26.3 162.03,-19.09 163.61,-29.57 169.8,-26.3"/>
</g>
<!-- Node7&#45;&gt;Node4 -->
<g id="edge11" class="edge">
<title>Node7&#45;&gt;Node4</title>
<path fill="none" stroke="#63b8ff" d="M164.29,-54.98C142.77,-46.34 109.21,-32.87 84.67,-23.02"/>
<polygon fill="#63b8ff" stroke="#63b8ff" points="85.67,-19.65 75.09,-19.17 83.07,-26.14 85.67,-19.65"/>
</g>
<!-- Node7&#45;&gt;Node5 -->
<g id="edge12" class="edge">
<title>Node7&#45;&gt;Node5</title>
<path fill="none" stroke="#63b8ff" d="M192.1,-54.75C197.75,-47.26 206.04,-36.28 212.95,-27.13"/>
<polygon fill="#63b8ff" stroke="#63b8ff" points="215.78,-29.18 219.01,-19.09 210.2,-24.96 215.78,-29.18"/>
</g>
</g>
</svg>
