<?xml version="1.0" encoding="UTF-8" standalone="no"?>
<!DOCTYPE svg PUBLIC "-//W3C//DTD SVG 1.1//EN"
 "http://www.w3.org/Graphics/SVG/1.1/DTD/svg11.dtd">
<!-- Generated by graphviz version 2.43.0 (0)
 -->
<!-- Title: init_scan Pages: 1 -->
<svg width="302pt" height="176pt"
 viewBox="0.00 0.00 302.00 176.00" xmlns="http://www.w3.org/2000/svg" xmlns:xlink="http://www.w3.org/1999/xlink">
<g id="graph0" class="graph" transform="scale(1 1) rotate(0) translate(4 172)">
<title>init_scan</title>
<!-- Node1 -->
<g id="node1" class="node">
<title>Node1</title>
<g id="a_node1"><a xlink:title="諸々の初期化を行う関数（スキャン式）">
<polygon fill="#999999" stroke="#666666" points="60,-130 0,-130 0,-111 60,-111 60,-130"/>
<text text-anchor="middle" x="30" y="-118" font-family="Helvetica,sans-Serif" font-size="10.00">init_scan</text>
</a>
</g>
</g>
<!-- Node2 -->
<g id="node2" class="node">
<title>Node2</title>
<g id="a_node2"><a xlink:href="common_8c.html#aa8c277fdab0cc5bc32555aa51957f23b" target="_top" xlink:title="アナログ機能を無効化する関数">
<polygon fill="white" stroke="#666666" points="165,-168 100,-168 100,-149 165,-149 165,-168"/>
<text text-anchor="middle" x="132.5" y="-156" font-family="Helvetica,sans-Serif" font-size="10.00">disAnalog</text>
</a>
</g>
</g>
<!-- Node1&#45;&gt;Node2 -->
<g id="edge1" class="edge">
<title>Node1&#45;&gt;Node2</title>
<path fill="none" stroke="#63b8ff" d="M56.36,-130.09C68.5,-134.68 83.23,-140.25 96.43,-145.24"/>
<polygon fill="#63b8ff" stroke="#63b8ff" points="95.56,-148.65 106.15,-148.91 98.03,-142.1 95.56,-148.65"/>
</g>
<!-- Node3 -->
<g id="node3" class="node">
<title>Node3</title>
<g id="a_node3"><a xlink:href="PIC12F6XX_8c.html#a6933d56410a79bc99303c7f4f54521ca" target="_top" xlink:title="EEPROMからデータを読み込む関数">
<polygon fill="white" stroke="#666666" points="279,-130 220,-130 220,-111 279,-111 279,-130"/>
<text text-anchor="middle" x="249.5" y="-118" font-family="Helvetica,sans-Serif" font-size="10.00">eepRead</text>
</a>
</g>
</g>
<!-- Node1&#45;&gt;Node3 -->
<g id="edge2" class="edge">
<title>Node1&#45;&gt;Node3</title>
<path fill="none" stroke="#63b8ff" d="M60.33,-120.5C99,-120.5 167.13,-120.5 209.94,-120.5"/>
<polygon fill="#63b8ff" stroke="#63b8ff" points="209.98,-124 219.98,-120.5 209.98,-117 209.98,-124"/>
</g>
<!-- Node4 -->
<g id="node4" class="node">
<title>Node4</title>
<g id="a_node4"><a xlink:href="common_8c.html#a70f6100e4f948b633c942e5c6e4c209a" target="_top" xlink:title="EEPROMの値を読み書きして初期状態を設定する関数">
<polygon fill="white" stroke="#666666" points="169,-92 96,-92 96,-73 169,-73 169,-92"/>
<text text-anchor="middle" x="132.5" y="-80" font-family="Helvetica,sans-Serif" font-size="10.00">setInitState</text>
</a>
</g>
</g>
<!-- Node1&#45;&gt;Node4 -->
<g id="edge3" class="edge">
<title>Node1&#45;&gt;Node4</title>
<path fill="none" stroke="#63b8ff" d="M56.36,-110.91C68.5,-106.32 83.23,-100.75 96.43,-95.76"/>
<polygon fill="#63b8ff" stroke="#63b8ff" points="98.03,-98.9 106.15,-92.09 95.56,-92.35 98.03,-98.9"/>
</g>
<!-- Node4&#45;&gt;Node3 -->
<g id="edge4" class="edge">
<title>Node4&#45;&gt;Node3</title>
<path fill="none" stroke="#63b8ff" d="M162.52,-92.09C176.93,-96.85 194.53,-102.67 210.05,-107.79"/>
<polygon fill="#63b8ff" stroke="#63b8ff" points="209.3,-111.23 219.89,-111.05 211.49,-104.58 209.3,-111.23"/>
</g>
<!-- Node5 -->
<g id="node5" class="node">
<title>Node5</title>
<g id="a_node5"><a xlink:href="PIC12F6XX_8c.html#a64719dac9a22c3c4752c799ffc69b25a" target="_top" xlink:title="EEPROMにデータを書き込む関数">
<polygon fill="white" stroke="#666666" points="280,-93 219,-93 219,-74 280,-74 280,-93"/>
<text text-anchor="middle" x="249.5" y="-81" font-family="Helvetica,sans-Serif" font-size="10.00">eepWrite</text>
</a>
</g>
</g>
<!-- Node4&#45;&gt;Node5 -->
<g id="edge5" class="edge">
<title>Node4&#45;&gt;Node5</title>
<path fill="none" stroke="#63b8ff" d="M169.26,-82.81C181.72,-82.92 195.79,-83.04 208.57,-83.15"/>
<polygon fill="#63b8ff" stroke="#63b8ff" points="208.91,-86.66 218.94,-83.24 208.97,-79.66 208.91,-86.66"/>
</g>
<!-- Node6 -->
<g id="node6" class="node">
<title>Node6</title>
<g id="a_node6"><a xlink:href="common_8c.html#ab1be8587a70ecef36ec9bc5afc406df8" target="_top" xlink:title="LEDを点滅させる関数">
<polygon fill="white" stroke="#666666" points="279,-56 220,-56 220,-37 279,-37 279,-56"/>
<text text-anchor="middle" x="249.5" y="-44" font-family="Helvetica,sans-Serif" font-size="10.00">flashLED</text>
</a>
</g>
</g>
<!-- Node4&#45;&gt;Node6 -->
<g id="edge6" class="edge">
<title>Node4&#45;&gt;Node6</title>
<path fill="none" stroke="#63b8ff" d="M164.02,-72.95C178.21,-68.5 195.24,-63.17 210.28,-58.47"/>
<polygon fill="#63b8ff" stroke="#63b8ff" points="211.32,-61.81 219.82,-55.48 209.23,-55.13 211.32,-61.81"/>
</g>
<!-- Node7 -->
<g id="node7" class="node">
<title>Node7</title>
<g id="a_node7"><a xlink:href="header_8h.html#ad27f22fae9a2bba28c51ff52680d9b58" target="_top" xlink:title="チャタリングを待つ関数">
<polygon fill="white" stroke="#666666" points="294,-19 205,-19 205,0 294,0 294,-19"/>
<text text-anchor="middle" x="249.5" y="-7" font-family="Helvetica,sans-Serif" font-size="10.00">waitChattering</text>
</a>
</g>
</g>
<!-- Node4&#45;&gt;Node7 -->
<g id="edge7" class="edge">
<title>Node4&#45;&gt;Node7</title>
<path fill="none" stroke="#63b8ff" d="M144.01,-72.97C157.42,-61.17 181.68,-40.98 205,-27.5 207.52,-26.04 210.18,-24.64 212.9,-23.31"/>
<polygon fill="#63b8ff" stroke="#63b8ff" points="214.55,-26.4 222.2,-19.07 211.65,-20.03 214.55,-26.4"/>
</g>
</g>
</svg>
