<?xml version="1.0" encoding="UTF-8" standalone="no"?>
<!DOCTYPE svg PUBLIC "-//W3C//DTD SVG 1.1//EN"
 "http://www.w3.org/Graphics/SVG/1.1/DTD/svg11.dtd">
<!-- Generated by graphviz version 2.43.0 (0)
 -->
<!-- Title: PIC12F1822.c Pages: 1 -->
<svg width="212pt" height="192pt"
 viewBox="0.00 0.00 211.50 192.00" xmlns="http://www.w3.org/2000/svg" xmlns:xlink="http://www.w3.org/1999/xlink">
<g id="graph0" class="graph" transform="scale(1 1) rotate(0) translate(4 188)">
<title>PIC12F1822.c</title>
<!-- Node1 -->
<g id="node1" class="node">
<title>Node1</title>
<g id="a_node1"><a xlink:title=" ">
<polygon fill="#999999" stroke="#666666" points="154.5,-184 71.5,-184 71.5,-165 154.5,-165 154.5,-184"/>
<text text-anchor="middle" x="113" y="-172" font-family="Helvetica,sans-Serif" font-size="10.00">PIC12F1822.c</text>
</a>
</g>
</g>
<!-- Node2 -->
<g id="node2" class="node">
<title>Node2</title>
<g id="a_node2"><a xlink:href="PIC12F1822_8h.html" target="_top" xlink:title=" ">
<polygon fill="white" stroke="#666666" points="123.5,-74 40.5,-74 40.5,-55 123.5,-55 123.5,-74"/>
<text text-anchor="middle" x="82" y="-62" font-family="Helvetica,sans-Serif" font-size="10.00">PIC12F1822.h</text>
</a>
</g>
</g>
<!-- Node1&#45;&gt;Node2 -->
<g id="edge1" class="edge">
<title>Node1&#45;&gt;Node2</title>
<path fill="none" stroke="#63b8ff" d="M110.46,-164.66C105.42,-147.09 94.04,-107.45 87.3,-83.95"/>
<polygon fill="#63b8ff" stroke="#63b8ff" points="90.61,-82.8 84.49,-74.16 83.88,-84.74 90.61,-82.8"/>
</g>
<!-- Node6 -->
<g id="node6" class="node">
<title>Node6</title>
<g id="a_node6"><a xlink:href="header_8h.html" target="_top" xlink:title=" ">
<polygon fill="white" stroke="#666666" points="178,-129 110,-129 110,-110 178,-110 178,-129"/>
<text text-anchor="middle" x="144" y="-117" font-family="Helvetica,sans-Serif" font-size="10.00">../header.h</text>
</a>
</g>
</g>
<!-- Node1&#45;&gt;Node6 -->
<g id="edge5" class="edge">
<title>Node1&#45;&gt;Node6</title>
<path fill="none" stroke="#63b8ff" d="M118.12,-164.75C122.36,-157.49 128.53,-146.95 133.78,-137.98"/>
<polygon fill="#63b8ff" stroke="#63b8ff" points="136.95,-139.49 138.98,-129.09 130.91,-135.95 136.95,-139.49"/>
</g>
<!-- Node3 -->
<g id="node3" class="node">
<title>Node3</title>
<g id="a_node3"><a xlink:title=" ">
<polygon fill="#e0e0e0" stroke="#999999" points="62,-19 0,-19 0,0 62,0 62,-19"/>
<text text-anchor="middle" x="31" y="-7" font-family="Helvetica,sans-Serif" font-size="10.00">stdbool.h</text>
</a>
</g>
</g>
<!-- Node2&#45;&gt;Node3 -->
<g id="edge2" class="edge">
<title>Node2&#45;&gt;Node3</title>
<path fill="none" stroke="#63b8ff" d="M73.58,-54.75C66.23,-47.11 55.37,-35.82 46.46,-26.56"/>
<polygon fill="#63b8ff" stroke="#63b8ff" points="48.72,-23.87 39.26,-19.09 43.68,-28.72 48.72,-23.87"/>
</g>
<!-- Node4 -->
<g id="node4" class="node">
<title>Node4</title>
<g id="a_node4"><a xlink:title=" ">
<polygon fill="#e0e0e0" stroke="#999999" points="143.5,-19 90.5,-19 90.5,0 143.5,0 143.5,-19"/>
<text text-anchor="middle" x="117" y="-7" font-family="Helvetica,sans-Serif" font-size="10.00">stdint.h</text>
</a>
</g>
</g>
<!-- Node2&#45;&gt;Node4 -->
<g id="edge3" class="edge">
<title>Node2&#45;&gt;Node4</title>
<path fill="none" stroke="#63b8ff" d="M87.78,-54.75C92.62,-47.42 99.68,-36.73 105.64,-27.7"/>
<polygon fill="#63b8ff" stroke="#63b8ff" points="108.74,-29.36 111.33,-19.09 102.9,-25.5 108.74,-29.36"/>
</g>
<!-- Node5 -->
<g id="node5" class="node">
<title>Node5</title>
<g id="a_node5"><a xlink:title=" ">
<polygon fill="#e0e0e0" stroke="#999999" points="203.5,-19 166.5,-19 166.5,0 203.5,0 203.5,-19"/>
<text text-anchor="middle" x="185" y="-7" font-family="Helvetica,sans-Serif" font-size="10.00">xc.h</text>
</a>
</g>
</g>
<!-- Node2&#45;&gt;Node5 -->
<g id="edge4" class="edge">
<title>Node2&#45;&gt;Node5</title>
<path fill="none" stroke="#63b8ff" d="M98.55,-54.98C114.89,-46.57 140.13,-33.59 159.13,-23.81"/>
<polygon fill="#63b8ff" stroke="#63b8ff" points="160.86,-26.86 168.15,-19.17 157.66,-20.63 160.86,-26.86"/>
</g>
<!-- Node6&#45;&gt;Node2 -->
<g id="edge9" class="edge">
<title>Node6&#45;&gt;Node2</title>
<path fill="none" stroke="#63b8ff" d="M134.04,-109.98C124.87,-102.15 111.06,-90.34 99.97,-80.86"/>
<polygon fill="#63b8ff" stroke="#63b8ff" points="102.02,-78.01 92.14,-74.17 97.47,-83.33 102.02,-78.01"/>
</g>
<!-- Node6&#45;&gt;Node3 -->
<g id="edge6" class="edge">
<title>Node6&#45;&gt;Node3</title>
<path fill="none" stroke="#63b8ff" d="M109.74,-115.15C83.35,-110.56 48.5,-99.71 31,-74 22.18,-61.04 23.16,-42.89 25.77,-29.31"/>
<polygon fill="#63b8ff" stroke="#63b8ff" points="29.27,-29.73 28.17,-19.19 22.45,-28.11 29.27,-29.73"/>
</g>
<!-- Node6&#45;&gt;Node4 -->
<g id="edge7" class="edge">
<title>Node6&#45;&gt;Node4</title>
<path fill="none" stroke="#63b8ff" d="M142.98,-109.77C141.42,-97.43 138.09,-74.25 133,-55 130.67,-46.17 127.34,-36.61 124.32,-28.62"/>
<polygon fill="#63b8ff" stroke="#63b8ff" points="127.55,-27.26 120.65,-19.22 121.03,-29.81 127.55,-27.26"/>
</g>
<!-- Node6&#45;&gt;Node5 -->
<g id="edge8" class="edge">
<title>Node6&#45;&gt;Node5</title>
<path fill="none" stroke="#63b8ff" d="M147.36,-109.66C154.06,-92.01 169.21,-52.09 178.12,-28.64"/>
<polygon fill="#63b8ff" stroke="#63b8ff" points="181.44,-29.75 181.71,-19.16 174.89,-27.27 181.44,-29.75"/>
</g>
</g>
</svg>
