<?xml version="1.0" encoding="UTF-8" standalone="no"?>
<!DOCTYPE svg PUBLIC "-//W3C//DTD SVG 1.1//EN"
 "http://www.w3.org/Graphics/SVG/1.1/DTD/svg11.dtd">
<!-- Generated by graphviz version 2.43.0 (0)
 -->
<!-- Title: init_scan Pages: 1 -->
<svg width="302pt" height="138pt"
 viewBox="0.00 0.00 302.00 138.00" xmlns="http://www.w3.org/2000/svg" xmlns:xlink="http://www.w3.org/1999/xlink">
<g id="graph0" class="graph" transform="scale(1 1) rotate(0) translate(4 134)">
<title>init_scan</title>
<!-- Node1 -->
<g id="node1" class="node">
<title>Node1</title>
<g id="a_node1"><a xlink:title="諸々の初期化を行う関数（スキャン式）">
<polygon fill="#999999" stroke="#666666" points="60,-92 0,-92 0,-73 60,-73 60,-92"/>
<text text-anchor="middle" x="30" y="-80" font-family="Helvetica,sans-Serif" font-size="10.00">init_scan</text>
</a>
</g>
</g>
<!-- Node2 -->
<g id="node2" class="node">
<title>Node2</title>
<g id="a_node2"><a xlink:href="common_8c.html#aa8c277fdab0cc5bc32555aa51957f23b" target="_top" xlink:title="アナログ機能を無効化する関数">
<polygon fill="white" stroke="#666666" points="165,-111 100,-111 100,-92 165,-92 165,-111"/>
<text text-anchor="middle" x="132.5" y="-99" font-family="Helvetica,sans-Serif" font-size="10.00">disAnalog</text>
</a>
</g>
</g>
<!-- Node1&#45;&gt;Node2 -->
<g id="edge1" class="edge">
<title>Node1&#45;&gt;Node2</title>
<path fill="none" stroke="#63b8ff" d="M60.07,-88C69.28,-89.74 79.65,-91.7 89.57,-93.57"/>
<polygon fill="#63b8ff" stroke="#63b8ff" points="89.21,-97.07 99.68,-95.48 90.51,-90.19 89.21,-97.07"/>
</g>
<!-- Node3 -->
<g id="node3" class="node">
<title>Node3</title>
<g id="a_node3"><a xlink:href="common_8c.html#a70f6100e4f948b633c942e5c6e4c209a" target="_top" xlink:title="EEPROMの値を読み書きして初期状態を設定する関数">
<polygon fill="white" stroke="#666666" points="169,-74 96,-74 96,-55 169,-55 169,-74"/>
<text text-anchor="middle" x="132.5" y="-62" font-family="Helvetica,sans-Serif" font-size="10.00">setInitState</text>
</a>
</g>
</g>
<!-- Node1&#45;&gt;Node3 -->
<g id="edge2" class="edge">
<title>Node1&#45;&gt;Node3</title>
<path fill="none" stroke="#63b8ff" d="M60.07,-77.29C68.07,-75.86 76.95,-74.27 85.65,-72.71"/>
<polygon fill="#63b8ff" stroke="#63b8ff" points="86.49,-76.12 95.71,-70.91 85.25,-69.23 86.49,-76.12"/>
</g>
<!-- Node4 -->
<g id="node4" class="node">
<title>Node4</title>
<g id="a_node4"><a xlink:href="PIC12F6XX_8c.html#a6933d56410a79bc99303c7f4f54521ca" target="_top" xlink:title="EEPROMからデータを読み込む関数">
<polygon fill="white" stroke="#666666" points="279,-130 220,-130 220,-111 279,-111 279,-130"/>
<text text-anchor="middle" x="249.5" y="-118" font-family="Helvetica,sans-Serif" font-size="10.00">eepRead</text>
</a>
</g>
</g>
<!-- Node3&#45;&gt;Node4 -->
<g id="edge3" class="edge">
<title>Node3&#45;&gt;Node4</title>
<path fill="none" stroke="#63b8ff" d="M151.37,-74.05C171.65,-84.89 202.3,-101.23 205,-102.5 208.13,-103.97 211.41,-105.45 214.7,-106.89"/>
<polygon fill="#63b8ff" stroke="#63b8ff" points="213.36,-110.12 223.93,-110.82 216.1,-103.68 213.36,-110.12"/>
</g>
<!-- Node5 -->
<g id="node5" class="node">
<title>Node5</title>
<g id="a_node5"><a xlink:href="PIC12F6XX_8c.html#a64719dac9a22c3c4752c799ffc69b25a" target="_top" xlink:title="EEPROMにデータを書き込む関数">
<polygon fill="white" stroke="#666666" points="280,-93 219,-93 219,-74 280,-74 280,-93"/>
<text text-anchor="middle" x="249.5" y="-81" font-family="Helvetica,sans-Serif" font-size="10.00">eepWrite</text>
</a>
</g>
</g>
<!-- Node3&#45;&gt;Node5 -->
<g id="edge4" class="edge">
<title>Node3&#45;&gt;Node5</title>
<path fill="none" stroke="#63b8ff" d="M169.26,-70.41C181.85,-72.49 196.07,-74.84 208.95,-76.97"/>
<polygon fill="#63b8ff" stroke="#63b8ff" points="208.51,-80.44 218.94,-78.62 209.65,-73.53 208.51,-80.44"/>
</g>
<!-- Node6 -->
<g id="node6" class="node">
<title>Node6</title>
<g id="a_node6"><a xlink:href="common_8c.html#ab1be8587a70ecef36ec9bc5afc406df8" target="_top" xlink:title="LEDを点滅させる関数">
<polygon fill="white" stroke="#666666" points="279,-56 220,-56 220,-37 279,-37 279,-56"/>
<text text-anchor="middle" x="249.5" y="-44" font-family="Helvetica,sans-Serif" font-size="10.00">flashLED</text>
</a>
</g>
</g>
<!-- Node3&#45;&gt;Node6 -->
<g id="edge5" class="edge">
<title>Node3&#45;&gt;Node6</title>
<path fill="none" stroke="#63b8ff" d="M169.26,-58.9C182.05,-56.9 196.54,-54.63 209.59,-52.59"/>
<polygon fill="#63b8ff" stroke="#63b8ff" points="210.35,-56.01 219.69,-51.01 209.27,-49.1 210.35,-56.01"/>
</g>
<!-- Node7 -->
<g id="node7" class="node">
<title>Node7</title>
<g id="a_node7"><a xlink:href="header_8h.html#ad27f22fae9a2bba28c51ff52680d9b58" target="_top" xlink:title="チャタリングを待つ関数">
<polygon fill="white" stroke="#666666" points="294,-19 205,-19 205,0 294,0 294,-19"/>
<text text-anchor="middle" x="249.5" y="-7" font-family="Helvetica,sans-Serif" font-size="10.00">waitChattering</text>
</a>
</g>
</g>
<!-- Node3&#45;&gt;Node7 -->
<g id="edge6" class="edge">
<title>Node3&#45;&gt;Node7</title>
<path fill="none" stroke="#63b8ff" d="M151.88,-54.9C166.24,-47.48 186.76,-37.07 205,-28.5 208.67,-26.78 212.54,-25.01 216.39,-23.29"/>
<polygon fill="#63b8ff" stroke="#63b8ff" points="218.08,-26.37 225.82,-19.13 215.26,-19.96 218.08,-26.37"/>
</g>
</g>
</svg>
